<svg width="1254" height="252" viewBox="0 0 1254 252" fill="none" xmlns="http://www.w3.org/2000/svg">
	<path d="M84.912 26.4179C70.644 26.4179 66.816 31.9859 66.816 47.9939V69.9179H105.792V95.6699H66.816V247.398H32.364V95.6699H4.524V69.9179H32.364V45.9059C32.364 14.5859 42.804 0.317936 74.472 0.317936H105.792V26.4179H84.912ZM108.565 158.658C108.565 105.762 143.017 66.4379 195.913 66.4379C250.897 66.4379 283.957 110.286 281.521 165.966H144.757C146.149 201.81 164.941 225.126 197.305 225.126C222.361 225.126 236.281 209.814 242.893 191.022H278.041C268.297 226.17 240.109 251.574 196.957 251.574C143.713 251.574 108.565 212.25 108.565 158.658ZM245.677 141.954C240.805 112.374 223.753 92.8859 195.913 92.8859C167.725 92.8859 150.673 112.026 145.801 141.954H245.677ZM358.677 251.574C324.225 251.574 297.081 232.086 297.081 197.286C297.081 161.442 324.573 151.35 368.073 139.866C395.913 132.21 414.705 128.73 414.705 114.114C414.705 101.238 402.177 91.4939 378.513 91.4939C354.501 91.4939 339.189 101.586 337.101 121.77H302.301C306.825 90.1019 333.273 66.4379 378.861 66.4379C423.753 66.4379 449.853 85.9259 449.853 121.422V247.398H416.793V215.73C410.529 235.218 392.085 251.574 358.677 251.574ZM368.421 226.518C398.697 226.518 416.097 200.418 416.097 170.838V137.778C411.921 147.87 399.393 153.438 378.861 159.354C351.369 167.01 333.273 175.014 333.273 196.242C333.273 215.73 348.237 226.518 368.421 226.518ZM568.714 95.6699H529.738V199.722C529.738 216.078 532.522 220.95 547.486 220.95H568.714V247.398H537.046C504.334 247.398 494.938 232.782 494.938 202.158V95.6699H467.794V69.9179H494.938V22.5899H529.738V69.9179H568.714V95.6699ZM649.89 251.574C613.35 251.574 592.122 228.606 592.122 193.11V69.9179H626.574V186.15C626.574 209.466 637.362 223.038 662.418 223.038C686.43 223.038 705.918 203.55 705.918 172.23V69.9179H740.37V247.398H706.266V218.166C697.566 235.914 680.862 251.574 649.89 251.574ZM863.244 69.9179H875.424V101.934H857.328C827.748 101.934 812.088 113.766 811.74 149.958V247.398H777.288V69.9179H811.044V102.978C818.004 84.5339 835.056 69.9179 863.244 69.9179ZM878.243 158.658C878.243 105.762 912.695 66.4379 965.591 66.4379C1020.58 66.4379 1053.64 110.286 1051.2 165.966H914.435C915.827 201.81 934.619 225.126 966.983 225.126C992.039 225.126 1005.96 209.814 1012.57 191.022H1047.72C1037.98 226.17 1009.79 251.574 966.635 251.574C913.391 251.574 878.243 212.25 878.243 158.658ZM1015.36 141.954C1010.48 112.374 993.431 92.8859 965.591 92.8859C937.403 92.8859 920.351 112.026 915.479 141.954H1015.36ZM1142.97 251.574C1097.38 251.574 1067.8 212.946 1067.8 159.006C1067.8 105.414 1097.38 66.4379 1142.97 66.4379C1169.07 66.4379 1188.21 78.6179 1199 98.4539V0.317936H1233.8V247.398H1199V219.558C1188.21 239.394 1169.07 251.574 1142.97 251.574ZM1152.37 224.43C1182.99 224.43 1200.04 197.286 1200.04 159.006C1200.04 120.726 1182.99 93.5819 1152.37 93.5819C1122.09 93.5819 1104.69 120.726 1104.69 159.006C1104.69 197.286 1122.09 224.43 1152.37 224.43Z" fill="#091423"/>
	<path d="M539.915 95.6606L539.915 140.661L494.915 95.6607L539.915 95.6606Z" fill="#E6E8EA"/>
</svg>