<svg width="49" height="38" viewBox="0 0 49 38" fill="none" xmlns="http://www.w3.org/2000/svg">
<path d="M31 3.00009C32.7626 3.00009 34.7324 3.00012 36.345 3.00012C37.9101 3.00012 39.1759 4.26886 39.1539 5.83376C39.1164 8.48721 39.0498 11.618 39.0498 14.2323L44.7596 19L39.0498 23.7677V32.1665C39.0498 33.7314 37.782 35 36.2171 35C34.5457 35 32.5449 35 31 35" stroke="#E6E8EA" stroke-width="5.1515"/>
<path d="M18.7598 3.00009C16.9971 3.00009 15.0274 3.00012 13.4148 3.00012C11.8497 3.00012 10.5838 4.26886 10.6059 5.83376C10.6433 8.48721 10.7099 11.618 10.7099 14.2323L5.00021 19L10.7099 23.7677V32.1665C10.7099 33.7314 11.9778 35 13.5427 35C15.2141 35 17.2149 35 18.7598 35" stroke="#E6E8EA" stroke-width="5.1515"/>
</svg>
