<svg width="37" height="37" viewBox="0 0 37 37" fill="none" xmlns="http://www.w3.org/2000/svg">
<path fill-rule="evenodd" clip-rule="evenodd" d="M16.0869 21.0879V29.376C11.8726 28.4452 8.55482 25.1275 7.62391 20.9132L15.914 20.9132L11.1385 16.0871H7.62379C8.55455 11.8727 11.8724 8.55471 16.0869 7.62385V16.0867L20.9168 16.0904L20.9082 25.9604L16.0869 21.0879ZM16.0869 37V33.8646C13.6082 33.4784 11.3233 32.5068 9.37813 31.0957L7.16627 33.3075L3.75371 29.895L5.95598 27.6927C4.51684 25.7322 3.52622 23.422 3.13534 20.9132H0V16.0871H3.13526C3.52093 13.6113 4.4907 11.3288 5.89924 9.38496L3.73193 7.21765L7.14449 3.80509L9.30037 5.96097C11.2623 4.51908 13.5751 3.52661 16.0869 3.1353V0H20.913V3.1353C23.4218 3.52614 25.732 4.51674 27.6925 5.95587L29.9166 3.73176L33.3292 7.14432L31.0956 9.37797C32.5068 11.3233 33.4785 13.6083 33.8646 16.0871H37V20.9132H33.8645C33.4732 23.4249 32.4807 25.7376 31.0389 27.6995L33.3075 29.9681L29.895 33.3807L27.6149 31.1006C25.6712 32.5091 23.3887 33.4789 20.913 33.8646V37H16.0869ZM20.913 16.0871V7.62385C25.1274 8.5547 28.4453 11.8727 29.3761 16.0871H20.913ZM20.913 20.9132L29.3759 20.9132C28.445 25.1275 25.1272 28.4452 20.913 29.376V20.9132Z" fill="#E6E8EA"/>
</svg>
