<svg width="40" height="41" viewBox="0 0 40 41" fill="none" xmlns="http://www.w3.org/2000/svg">
<path fill-rule="evenodd" clip-rule="evenodd" d="M30.6171 3.56917C27.6112 1.71518 24.07 0.645508 20.279 0.645508C16.4913 0.645508 12.953 1.71334 9.94873 3.56438V9.87879C12.6062 7.26092 16.254 5.64551 20.279 5.64551C24.3077 5.64551 27.9583 7.26379 30.6164 9.88576L30.6171 3.56917ZM30.6292 9.89844C33.3279 12.5669 35 16.2714 35 20.3664C35 24.4612 33.3281 28.1655 30.6297 30.834H36.9957C38.8993 27.8005 40 24.212 40 20.3664C40 16.5207 38.8992 12.9321 36.9955 9.89844L30.6292 9.89844ZM30.612 37.1668L30.6113 30.8521C27.9536 33.4711 24.3051 35.0874 20.279 35.0874C16.254 35.0874 12.6062 33.4719 9.94873 30.8541V37.1685C12.953 39.0195 16.4913 40.0874 20.279 40.0874C24.0679 40.0874 27.6071 39.0189 30.612 37.1668ZM3.56277 30.8347L9.92838 30.834C7.22999 28.1655 5.55811 24.4612 5.55811 20.3664C5.55811 16.2714 7.23015 12.567 9.92875 9.89851L3.563 9.8978C1.65906 12.9316 0.558105 16.5204 0.558105 20.3664C0.558105 24.2123 1.65897 27.801 3.56277 30.8347ZM20.2765 14.6953C17.1442 14.6953 14.605 17.2345 14.605 20.3668C14.605 23.4991 17.1442 26.0383 20.2765 26.0383C23.4088 26.0383 25.948 23.4991 25.948 20.3668C25.948 17.2345 23.4088 14.6953 20.2765 14.6953ZM9.60498 20.3668C9.60498 14.4731 14.3828 9.69531 20.2765 9.69531C26.1702 9.69531 30.948 14.4731 30.948 20.3668C30.948 26.2605 26.1702 31.0383 20.2765 31.0383C14.3828 31.0383 9.60498 26.2605 9.60498 20.3668Z" fill="#E6E8EA"/>
</svg>
