<?xml version="1.0" encoding="utf-8"?>
<!-- Generator: Adobe Illustrator 28.4.1, SVG Export Plug-In . SVG Version: 6.00 Build 0)  -->
<svg version="1.1" id="Layer_1" xmlns="http://www.w3.org/2000/svg" xmlns:xlink="http://www.w3.org/1999/xlink" x="0px" y="0px"
	 viewBox="0 0 1254 252" style="enable-background:new 0 0 1254 252;" xml:space="preserve">
<g>
	<path d="M152.16,70.05V98c0,34.01-25.25,60.95-57.24,60.95H62.6v86.87H15.46V10.12h79.46C126.91,10.12,152.16,36.72,152.16,70.05z
		 M105.02,62.65c0-13.13-2.69-15.49-16.84-15.49H62.6v74.75h25.59c14.14,0,16.84-2.36,16.84-15.49V62.65z"/>
	<path d="M160.92,194.64v-57.92c0-31.31,20.2-51.18,52.53-51.18H235c32.32,0,52.53,19.87,52.53,51.18v57.92
		c0,31.31-20.2,51.18-52.53,51.18h-21.55C181.12,245.82,160.92,225.95,160.92,194.64z M241.73,165.68
		c0-40.74-1.68-45.12-17.51-45.12c-15.83,0-17.51,4.38-17.51,45.12c0,40.74,1.68,45.12,17.51,45.12
		C240.05,210.8,241.73,206.42,241.73,165.68z"/>
	<path d="M399.65,85.54v57.58c-7.74-9.09-20.88-15.83-34.01-15.83c-11.79,0-13.13,3.7-13.13,38.38v80.14h-45.79V85.54h45.79v31.65
		h7.41c0-20.2,11.45-33,29.63-33C395.27,84.19,398.98,84.87,399.65,85.54z"/>
	<path d="M504.03,206.09l-9.09,39.73h-22.56c-28.96,0-47.14-16.16-47.14-54.55v-70.71h-15.49V85.54h15.49V47.49l45.79-10.44v48.49
		h29.63v35.02h-29.63v70.71c0,17.51,1.35,19.53,13.13,19.53C490.56,210.8,497.97,209.12,504.03,206.09z"/>
	<path d="M576.09,85.54h29.63v35.02h-29.63v125.26H530.3V120.56h-15.49V85.54h15.49V64.67c0-38.39,18.18-54.55,47.14-54.55H600
		l9.09,39.73c-6.06-3.03-13.47-4.71-19.87-4.71c-11.79,0-13.13,2.02-13.13,19.53V85.54z"/>
	<path d="M611.78,194.64v-57.92c0-31.31,20.2-51.18,52.53-51.18h21.55c32.33,0,52.53,19.87,52.53,51.18v57.92
		c0,31.31-20.2,51.18-52.53,51.18h-21.55C631.99,245.82,611.78,225.95,611.78,194.64z M692.6,165.68c0-40.74-1.68-45.12-17.51-45.12
		c-15.83,0-17.51,4.38-17.51,45.12c0,40.74,1.68,45.12,17.51,45.12C690.91,210.8,692.6,206.42,692.6,165.68z"/>
	<path d="M756.91,245.82V10.12h45.79v235.7H756.91z"/>
	<path d="M826.27,42.78c0-14.14,9.09-22.9,23.57-22.9c14.48,0,23.57,8.75,23.57,22.9s-9.09,22.9-23.57,22.9
		C835.36,65.68,826.27,56.92,826.27,42.78z M826.94,245.82V85.54h45.79v160.28H826.94z"/>
	<path d="M895.29,194.64v-57.92c0-31.31,20.2-51.18,52.53-51.18h21.55c32.33,0,52.53,19.87,52.53,51.18v57.92
		c0,31.31-20.2,51.18-52.53,51.18h-21.55C915.5,245.82,895.29,225.95,895.29,194.64z M976.11,165.68c0-40.74-1.68-45.12-17.51-45.12
		c-15.83,0-17.51,4.38-17.51,45.12c0,40.74,1.68,45.12,17.51,45.12C974.42,210.8,976.11,206.42,976.11,165.68z"/>
</g>
</svg>
